####
#
# OBJ File Generated by Meshlab
#
####
# Object custom_base.obj
#
# Vertices: 26
# Faces: 24
#
####
vn 0.000000 1.151917 1.067936
v 0.000000 100.000000 0.000000
vn 0.000000 2.212120 2.226975
v 0.000000 61.000000 42.066910
vn 0.000000 1.151917 1.067936
v 80.000000 100.000000 0.000000
vn 0.000000 2.212121 2.226976
v 80.000000 61.000000 42.066910
vn 0.000000 -2.212121 2.226976
v 0.000000 39.000000 42.066910
vn 0.000000 -2.212120 2.226975
v 80.000000 39.000000 42.066910
vn 0.000000 -1.916101 2.476173
v 80.000000 40.820206 43.731899
vn 0.000000 -1.916101 2.476173
v 0.000000 40.820206 43.731899
vn 0.000000 -1.484346 2.756737
v 80.000000 42.888691 45.076038
vn 0.000000 -1.484346 2.756737
v 0.000000 42.888691 45.076038
vn 0.000000 -1.012446 2.962740
v 80.000000 45.149506 46.062981
vn 0.000000 -1.012445 2.962740
v 0.000000 45.149506 46.062981
vn 0.000000 -0.513163 3.088615
v 80.000000 47.541508 46.666027
vn 0.000000 -0.513163 3.088615
v 0.000000 47.541508 46.666027
vn 0.000000 -0.000000 3.130955
v 80.000000 50.000000 46.868874
vn 0.000000 -0.000000 3.130955
v 0.000000 50.000000 46.868874
vn 0.000000 0.513163 3.088615
v 80.000000 52.458496 46.666027
vn 0.000000 0.513163 3.088615
v 0.000000 52.458496 46.666027
vn 0.000000 1.012446 2.962740
v 80.000000 54.850494 46.062981
vn 0.000000 1.012446 2.962740
v 0.000000 54.850494 46.062981
vn 0.000000 1.484346 2.756737
v 80.000000 57.111309 45.076038
vn 0.000000 1.484346 2.756737
v 0.000000 57.111309 45.076038
vn 0.000000 1.916101 2.476173
v 80.000000 59.179794 43.731899
vn 0.000000 1.916101 2.476173
v 0.000000 59.179794 43.731899
vn 0.000000 -1.151917 1.067936
v 0.000000 0.000000 -0.000000
vn 0.000000 -1.151917 1.067936
v 80.000000 0.000000 -0.000000
# 26 vertices, 0 vertices normals

f 1//1 2//2 3//3
f 3//3 2//2 4//4
f 5//5 6//6 7//7
f 5//5 7//7 8//8
f 8//8 7//7 9//9
f 8//8 9//9 10//10
f 10//10 9//9 11//11
f 10//10 11//11 12//12
f 12//12 11//11 13//13
f 12//12 13//13 14//14
f 14//14 13//13 15//15
f 14//14 15//15 16//16
f 16//16 15//15 17//17
f 16//16 17//17 18//18
f 18//18 17//17 19//19
f 18//18 19//19 20//20
f 20//20 19//19 21//21
f 20//20 21//21 22//22
f 22//22 21//21 23//23
f 22//22 23//23 24//24
f 24//24 23//23 4//4
f 24//24 4//4 2//2
f 5//5 25//25 6//6
f 6//6 25//25 26//26
# 24 faces, 0 coords texture

# End of File
