####
#
# OBJ File Generated by Meshlab
#
####
# Object geom_to_slice.obj
#
# Vertices: 36
# Faces: 36
#
####
vn 3.268239 0.000000 0.000000
v 60.000000 40.376213 43.374638
vn 1.570799 -1.570796 0.000000
v 60.000000 30.000002 70.000000
vn 3.204918 0.000000 0.000000
v 60.000000 39.000000 42.066910
vn 0.747584 -1.570796 0.000000
v 60.000000 30.000002 32.359161
vn 3.268242 0.000000 0.000000
v 60.000000 41.906582 44.498066
vn 3.268240 0.000000 0.000000
v 60.000000 43.566593 45.419193
vn 3.268240 0.000000 0.000000
v 60.000000 45.329655 46.123268
vn 3.268240 0.000000 0.000000
v 60.000000 47.167530 46.599014
vn 3.268242 0.000000 0.000000
v 60.000000 49.050774 46.838810
vn 1.570794 1.570796 0.000000
v 60.000000 70.000000 70.000000
vn 3.268242 0.000000 0.000000
v 60.000000 50.949226 46.838810
vn 3.268240 0.000000 0.000000
v 60.000000 52.832470 46.599014
vn 3.268239 0.000000 0.000000
v 60.000000 54.670345 46.123268
vn 3.268241 0.000000 0.000000
v 60.000000 56.433411 45.419193
vn 3.268242 0.000000 0.000000
v 60.000000 58.093422 44.498066
vn 3.268240 0.000000 0.000000
v 60.000000 59.623791 43.374638
vn 3.204916 0.000000 0.000000
v 60.000000 61.000000 42.066910
vn 0.747584 1.570796 0.000000
v 60.000000 70.000000 32.359161
vn -1.570795 1.570796 0.000000
v 20.000000 70.000000 70.000000
vn -0.747584 1.570796 0.000000
v 20.000000 70.000000 32.359161
vn -1.570799 -1.570796 0.000000
v 20.000000 30.000002 70.000000
vn -3.268242 0.000000 0.000000
v 20.000000 49.050774 46.838810
vn -3.268240 0.000000 0.000000
v 20.000000 47.167530 46.599014
vn -3.268240 0.000000 0.000000
v 20.000000 45.329655 46.123268
vn -3.268240 0.000000 0.000000
v 20.000000 43.566593 45.419193
vn -3.268242 0.000000 0.000000
v 20.000000 41.906582 44.498066
vn -3.268242 0.000000 0.000000
v 20.000000 50.949226 46.838810
vn -3.268240 0.000000 0.000000
v 20.000000 52.832470 46.599014
vn -3.268239 0.000000 0.000000
v 20.000000 40.376213 43.374638
vn -3.204918 0.000000 0.000000
v 20.000000 39.000000 42.066910
vn -0.747584 -1.570796 0.000000
v 20.000000 30.000002 32.359161
vn -3.204916 0.000000 0.000000
v 20.000000 61.000000 42.066910
vn -3.268240 0.000000 0.000000
v 20.000000 59.623791 43.374638
vn -3.268242 0.000000 0.000000
v 20.000000 58.093422 44.498066
vn -3.268241 0.000000 0.000000
v 20.000000 56.433411 45.419193
vn -3.268239 0.000000 0.000000
v 20.000000 54.670345 46.123268
# 36 vertices, 0 vertices normals

f 1//1 2//2 3//3
f 3//3 2//2 4//4
f 1//1 5//5 2//2
f 2//2 5//5 6//6
f 2//2 6//6 7//7
f 7//7 8//8 2//2
f 2//2 8//8 9//9
f 2//2 9//9 10//10
f 10//10 9//9 11//11
f 10//10 11//11 12//12
f 12//12 13//13 10//10
f 10//10 13//13 14//14
f 10//10 14//14 15//15
f 15//15 16//16 10//10
f 10//10 16//16 17//17
f 10//10 17//17 18//18
f 19//19 10//10 20//20
f 20//20 10//10 18//18
f 21//21 22//22 23//23
f 23//23 24//24 21//21
f 21//21 24//24 25//25
f 21//21 25//25 26//26
f 22//22 21//21 27//27
f 27//27 21//21 19//19
f 27//27 19//19 28//28
f 26//26 29//29 21//21
f 21//21 29//29 30//30
f 21//21 30//30 31//31
f 20//20 32//32 19//19
f 19//19 32//32 33//33
f 19//19 33//33 34//34
f 34//34 35//35 19//19
f 19//19 35//35 36//36
f 19//19 36//36 28//28
f 2//2 21//21 4//4
f 4//4 21//21 31//31
# 36 faces, 0 coords texture

# End of File
